<svg width="840" height="840" viewBox="0 0 840 840" fill="none" xmlns="http://www.w3.org/2000/svg">
<path d="M211.149 633.085C224.025 633.085 235.277 635.637 244.905 640.741C254.533 645.845 261.957 653.037 267.177 662.317C272.513 671.481 275.181 682.095 275.181 694.159C275.181 706.107 272.513 716.721 267.177 726.001C261.957 735.281 254.475 742.473 244.731 747.577C235.103 752.681 223.909 755.233 211.149 755.233H165.387V633.085H211.149ZM209.235 729.481C220.487 729.481 229.245 726.407 235.509 720.259C241.773 714.111 244.905 705.411 244.905 694.159C244.905 682.907 241.773 674.149 235.509 667.885C229.245 661.621 220.487 658.489 209.235 658.489H195.141V729.481H209.235ZM344.705 756.625C335.193 756.625 326.609 754.595 318.953 750.535C311.413 746.475 305.439 740.675 301.031 733.135C296.739 725.595 294.593 716.779 294.593 706.687C294.593 696.711 296.797 687.953 301.205 680.413C305.613 672.757 311.645 666.899 319.301 662.839C326.957 658.779 335.541 656.749 345.053 656.749C354.565 656.749 363.149 658.779 370.805 662.839C378.461 666.899 384.493 672.757 388.901 680.413C393.309 687.953 395.513 696.711 395.513 706.687C395.513 716.663 393.251 725.479 388.727 733.135C384.319 740.675 378.229 746.475 370.457 750.535C362.801 754.595 354.217 756.625 344.705 756.625ZM344.705 730.873C350.389 730.873 355.203 728.785 359.147 724.609C363.207 720.433 365.237 714.459 365.237 706.687C365.237 698.915 363.265 692.941 359.321 688.765C355.493 684.589 350.737 682.501 345.053 682.501C339.253 682.501 334.439 684.589 330.611 688.765C326.783 692.825 324.869 698.799 324.869 706.687C324.869 714.459 326.725 720.433 330.437 724.609C334.265 728.785 339.021 730.873 344.705 730.873ZM449.752 674.323C453.232 668.987 457.582 664.811 462.802 661.795C468.022 658.663 473.822 657.097 480.202 657.097V688.591H472.024C464.6 688.591 459.032 690.215 455.32 693.463C451.608 696.595 449.752 702.163 449.752 710.167V755.233H419.998V658.141H449.752V674.323ZM532.878 674.323C536.358 668.987 540.708 664.811 545.928 661.795C551.148 658.663 556.948 657.097 563.328 657.097V688.591H555.15C547.726 688.591 542.158 690.215 538.446 693.463C534.734 696.595 532.878 702.163 532.878 710.167V755.233H503.124V658.141H532.878V674.323ZM685.43 658.141L624.53 801.343H592.514L614.786 751.927L575.288 658.141H608.522L630.968 718.867L653.24 658.141H685.43Z" fill="#46B7BF"/>
<path d="M497.653 0H587.882C595.432 0 601.553 6.19503 601.553 13.837V408.729C601.553 410.212 601.424 411.7 601.144 413.157C584.739 498.609 511.591 563.239 422.736 564.826C421.643 564.826 426.017 556.801 427.385 552.65C428.387 549.605 430.804 544.569 427.96 538.813C425.117 533.056 420.487 531.248 418.117 531.064C415.11 530.51 412.95 531.759 416.477 527.743C420.851 522.762 434.643 507.541 437.53 501.453C439.926 496.401 439.273 485.402 438.077 482.634C437.239 480.697 435.438 474.389 429.327 470.735C423.312 467.137 421.672 466.86 420.031 466.307C418.564 465.812 419.484 465.753 420.031 465.2C420.031 465.2 423.614 462.156 428.507 458.005L432.882 453.853C458.281 445.275 497.653 417.999 497.653 376.09C497.653 332.225 462.521 296.665 419.182 296.665C388.253 296.665 361.15 314.628 348.366 340.944C391.567 350.629 433.4 327.383 439.142 324.616C444.883 321.849 453.906 322.125 460.468 329.321C467.03 336.516 467.851 346.478 458.281 357.548C448.711 368.618 411.8 409.852 343.445 410.959C288.761 411.844 248.584 375.599 235.096 357.426C244.854 263.247 323.549 189.844 419.182 189.844C442.083 189.844 463.738 193.771 483.982 201.467V201.19V13.837C483.982 6.19503 490.103 0 497.653 0Z" fill="#46B7BF"/>
<path fill-rule="evenodd" clip-rule="evenodd" d="M253.95 462.958C241.368 438.175 234.069 410.192 233.558 380.535C259.27 408.538 297.088 426.23 339.252 426.23C371.579 426.23 401.351 415.83 425.072 398.356L425.925 398.002C430.027 396.895 440.143 396.895 445.612 402.43C452.447 409.348 452.447 417.927 450.807 420.418V420.989C445.917 428.595 440.248 435.699 433.906 442.201L422.033 453.032C397.54 472.903 365.768 484.898 331.049 484.898C302.57 484.898 276.073 476.827 253.95 462.958Z" fill="#46B7BF"/>
<path fill-rule="evenodd" clip-rule="evenodd" d="M354.709 553.462C319.873 540.404 289.964 517.069 268.575 487.093C294.581 495.552 347.548 505.596 400.59 475.993C400.72 475.92 400.852 475.845 400.987 475.769C404.246 473.927 408.856 471.321 416.995 472.119C424.104 472.815 433.673 480.974 433.4 490.384C433.143 499.213 430.479 502.681 429.474 503.99C429.408 504.076 429.349 504.152 429.299 504.221C428.478 505.328 398.129 541.857 357.116 552.927C356.323 553.141 355.52 553.319 354.709 553.462Z" fill="#46B7BF"/>
<path fill-rule="evenodd" clip-rule="evenodd" d="M380.217 560.958C378.019 560.483 375.835 559.968 373.667 559.415C380.374 556.336 393.925 548.133 404.142 539.365C416.719 528.573 426.015 540.196 423.828 549.605C422.734 554.309 418.633 563.165 417.539 564.825C417.44 564.977 416.969 565.058 416.191 565.079C415.434 565.067 414.677 565.05 413.922 565.029C407.078 564.671 391.924 562.652 380.217 560.958Z" fill="#46B7BF"/>
</svg>
