<svg width="375" height="256" viewBox="0 0 375 256" fill="none" xmlns="http://www.w3.org/2000/svg">
<path fill-rule="evenodd" clip-rule="evenodd" d="M206.948 72.0238C218.391 72.5243 226.457 82.2198 233.126 91.5132C239.246 100.043 243.444 109.909 241.535 120.226C239.524 131.089 233.021 140.92 223.082 145.783C213.064 150.685 201.316 149.683 191.281 144.816C181.294 139.971 173.642 131.3 171.022 120.531C168.357 109.576 171.011 98.1551 177.725 89.0896C184.783 79.56 195.085 71.5048 206.948 72.0238Z" fill="#E5F5F6"/>
<path fill-rule="evenodd" clip-rule="evenodd" d="M196.099 0H375V255.539C359.321 248.943 344.247 241.487 330.37 233.851C295.729 214.791 284.535 176.457 272.952 136.791C267.076 116.666 261.099 96.1987 251.909 77.7311C242.388 58.5967 228.252 40.9061 214.352 23.5096C208.07 15.6484 201.837 7.84719 196.099 0Z" fill="#FFAE48"/>
<path fill-rule="evenodd" clip-rule="evenodd" d="M201.973 0C196.525 26.0163 180.437 49.719 157.949 66.9626C119.495 96.4492 68.2967 114.891 28.1137 87.8069C16.8153 80.1914 7.43227 70.756 0 60.0818L0 0H201.973Z" fill="#46B7BF"/>
</svg>
