<svg width="375" height="100" viewBox="0 0 375 100" fill="none" xmlns="http://www.w3.org/2000/svg">
<g clip-path="url(#clip0)">
<path fill-rule="evenodd" clip-rule="evenodd" d="M88.8446 -24.3107C36.1026 -20.7401 -18.4272 -17.0484 -56.5772 23.5754C-105.378 75.5406 -146.326 150.997 -124.285 214.089C-108.931 258.037 -62.3976 267.476 -15.3677 277.015C-10.2378 278.056 -5.10195 279.097 -3.05176e-05 280.185V260H255.366C270.31 228.431 277.909 191.37 282.677 156.999C290.66 99.4442 281.845 40.2393 243.649 2.09189C208.626 -32.8859 154.705 -29.0105 103.504 -25.3308C102.449 -25.2549 101.394 -25.1791 100.341 -25.1038C96.5233 -24.8306 92.6887 -24.571 88.8446 -24.3107Z" fill="#E5F5F6"/>
<path fill-rule="evenodd" clip-rule="evenodd" d="M580.834 79.2163C548.193 28.2842 514.446 -24.3745 452.681 -40.2557C373.673 -60.5707 275.43 -60.0668 224.294 -3.19815C188.674 36.4157 204.846 88.2886 221.19 140.715C227.353 160.481 233.54 180.326 236.984 199.623C240.053 216.813 241.249 234.894 242.441 252.906C242.598 255.272 242.754 257.638 242.915 260H375V403.285C418.652 403.13 464.811 389.155 505.779 373.524C567.904 349.82 622.429 308.358 639.645 249.03C655.431 194.631 621.835 142.684 589.934 93.3577C589.276 92.3409 588.619 91.3251 587.964 90.3106C585.586 86.6316 583.213 82.9285 580.834 79.2163Z" fill="#FFAE48"/>
<path fill-rule="evenodd" clip-rule="evenodd" d="M111.875 28.0543C85.1637 -5.22195 57.5465 -39.6262 13.0931 -46.0883C-43.7707 -54.3546 -112.528 -46.5473 -144.033 -2.74792C-165.978 27.7621 -150.728 62.9481 -135.315 98.5094C-129.503 111.917 -123.669 125.379 -119.796 138.663C-116.346 150.497 -114.14 163.098 -111.942 175.651C-105.808 210.691 -99.7374 245.363 -66.8634 261.96C-46.045 272.471 -23.1174 273.874 0 270.085V260H37.3754C52.6934 254.441 67.6272 247.491 81.5915 240.342C123.301 218.989 158.345 185.748 165.911 142.795C172.848 103.412 145.39 69.4956 119.318 37.2906C118.781 36.6267 118.244 35.9635 117.708 35.301C115.764 32.8989 113.822 30.4796 111.875 28.0543Z" fill="#46B7BF"/>
</g>
<defs>
<clipPath id="clip0">
<rect width="375" height="100" fill="white"/>
</clipPath>
</defs>
</svg>
